<svg width="789" height="130" viewBox="0 0 789 130" fill="none" xmlns="http://www.w3.org/2000/svg">
<path d="M102.5 41.5C72.6349 10.5574 0.5 0 0.5 0L0 129.5H140.5C140.5 129.5 128.496 68.4342 102.5 41.5Z" fill="#20283B"/>
<path d="M759 78.1112V103.611H613C613 103.611 683.5 80.6113 718 78.1112C752.5 75.6111 759 78.1112 759 78.1112Z" fill="#20283B"/>
<path d="M221.053 41.107C152.638 27.5269 48 84.034 48 84.034V104H459C459 104 271.346 51.0901 221.053 41.107Z" fill="#20283B"/>
<path d="M160 41.1106C96.7451 27.5073 0 84.1106 0 84.1106V104.111H380C380 104.111 206.5 51.1107 160 41.1106Z" fill="#16A9BD"/>
<path d="M788.5 78.4999V104H642.5C642.5 104 713 81 747.5 78.4999C782 75.9998 788.5 78.4999 788.5 78.4999Z" fill="#16A9BD"/>
<rect y="104" width="789" height="26" fill="#20283B"/>
</svg>
